<svg xmlns="http://www.w3.org/2000/svg" width="34" height="34" viewBox="0 0 34 34" fill="none"><g id="customer-service 1"><g id="Group"><path id="path2" fill-rule="evenodd" clip-rule="evenodd" d="M17.7656 4.9481C15.4204 4.87 13.051 5.50983 11.0054 6.8753C8.70786 8.41053 7.10223 10.6776 6.36266 13.212C6.15843 13.1871 5.91386 13.1981 5.62346 13.2802C4.53923 13.5879 3.72376 14.4763 3.3571 15.2588C2.88153 16.2785 2.68096 17.6271 2.89253 19.0193C3.10263 20.4071 3.68893 21.5511 4.42226 22.2614C5.1578 22.972 5.9883 23.203 6.8133 23.0295C8.04163 22.7674 8.65066 22.5712 8.4787 21.4268L7.646 15.8795C7.81393 12.8773 9.36823 10.051 11.9679 8.313C15.4476 5.9887 20.0096 6.13756 23.3287 8.68553C25.6376 10.4558 26.9781 13.1083 27.1329 15.8927L26.5506 19.7732C25.2519 23.3273 22.0322 25.7891 18.3065 26.1385H15.8256C15.1854 26.1385 14.6699 26.654 14.6699 27.2935V27.9029C14.6699 28.5427 15.1854 29.0583 15.8256 29.0583H18.9536C19.5935 29.0583 20.1068 28.5427 20.1068 27.9029V27.5843C22.9162 26.8986 25.3685 25.172 26.9653 22.7641L27.9674 23.0299C28.7829 23.2415 29.6233 22.972 30.3584 22.2617C31.0918 21.5511 31.6777 20.4075 31.8882 19.0197C32.1005 17.6274 31.894 16.281 31.424 15.2591C30.9521 14.2372 30.2492 13.5882 29.4377 13.3554C29.0978 13.2575 28.729 13.2216 28.4125 13.212C27.7437 10.9204 26.3669 8.83623 24.3825 7.31456C22.4315 5.81746 20.1108 5.0251 17.7656 4.9481Z" fill="#1E2227"></path><path id="path4" fill-rule="evenodd" clip-rule="evenodd" d="M21.4269 14.928C22.2537 14.928 22.924 15.5983 22.9258 16.4273C22.924 17.2542 22.2537 17.9263 21.4269 17.9263C20.5978 17.9263 19.9257 17.2542 19.9257 16.4273C19.9257 15.5987 20.5982 14.928 21.4269 14.928ZM17.3899 14.928C18.2185 14.928 18.8888 15.5983 18.8888 16.4273C18.8888 17.2542 18.2185 17.9263 17.3899 17.9263C16.5605 17.9263 15.8902 17.2542 15.8902 16.4273C15.8902 15.5987 16.5605 14.928 17.3899 14.928ZM13.3543 14.928C14.1812 14.928 14.8533 15.5983 14.8533 16.4273C14.8533 17.2542 14.1812 17.9263 13.3543 17.9263C12.5257 17.9263 11.855 17.2542 11.855 16.4273C11.855 15.5987 12.5257 14.928 13.3543 14.928ZM17.3899 8.48863C12.9935 8.48863 9.45081 11.9148 9.45081 16.4273C9.45081 18.5947 10.2703 20.5102 11.6053 21.9156L11.1316 24.0393C10.9754 24.7382 11.4601 25.2083 12.0882 24.8585L14.1621 23.7016C15.1477 24.1295 16.2378 24.366 17.3899 24.366C21.7877 24.366 25.3282 20.9421 25.3282 16.4273C25.3282 11.9148 21.7877 8.48863 17.3899 8.48863Z" fill="#1E2227"></path></g></g></svg>