<svg xmlns="http://www.w3.org/2000/svg" width="31" height="31" viewBox="0 0 31 31" fill="none"> <g class="star1" clip-path="url(#clip0_2179_16151)"> <path d="M0.0921097 17.3572C0.168995 17.2034 0.361208 17.1265 0.514978 17.0881C1.39916 17.0881 9.01081 16.7805 9.01081 7.93872C9.01081 7.66962 9.24147 7.43896 9.51057 7.43896C9.77967 7.43896 10.0103 7.66962 10.0103 7.93872C10.0103 16.7805 17.622 17.0881 18.4677 17.0881C18.583 17.0881 18.6984 17.1265 18.7753 17.2034C18.8521 17.2419 18.8906 17.3187 18.929 17.3572C19.0059 17.511 19.0059 17.7032 18.929 17.8569C18.8521 18.0107 18.6599 18.126 18.4677 18.126C18.4677 18.126 18.4677 18.126 18.4293 18.126C17.5451 18.126 9.97188 18.4336 9.97188 27.2754C9.97188 27.5445 9.74123 27.7752 9.47213 27.7752C9.20303 27.7752 8.97237 27.5445 8.97237 27.2754C8.97237 18.472 1.39916 18.126 0.514978 18.126C0.322765 18.126 0.168995 18.0107 0.0536671 17.8569C-0.0232182 17.7032 -0.0232182 17.511 0.0921097 17.3572ZM9.51057 23.508C10.6254 19.856 13.3548 18.2798 15.5076 17.5878C13.3548 16.8959 10.6254 15.3197 9.51057 11.6677C8.39573 15.3197 5.6663 16.8959 3.51351 17.5878C5.6663 18.2798 8.39573 19.856 9.51057 23.508Z" fill="#3CA200"></path> </g> <g class="star2" clip-path="url(#clip0_2179_16151)"> <path d="M15.8536 7.36192C15.5845 7.36192 15.3538 7.13126 15.3538 6.82372C15.3538 6.55462 15.5845 6.32397 15.8536 6.32397C16.3149 6.32397 20.4667 6.17019 20.4667 1.32642C20.4667 1.05732 20.6974 0.82666 20.9665 0.82666C21.2356 0.82666 21.4662 1.05732 21.4662 1.32642C21.4662 6.17019 25.618 6.32397 26.0793 6.32397C26.1178 6.32397 26.1178 6.32397 26.1178 6.32397C26.3869 6.36241 26.5791 6.55462 26.5791 6.82372C26.5791 7.09282 26.3484 7.32347 26.0793 7.32347C25.5796 7.32347 21.4662 7.47725 21.4662 12.321C21.4662 12.5901 21.2356 12.8208 20.9665 12.8208C20.7358 12.8592 20.5052 12.6286 20.5052 12.3595C20.5052 7.51569 16.3533 7.36192 15.892 7.36192H15.8536ZM21.0049 9.55315C21.62 8.09233 22.7348 7.28503 23.7728 6.82372C22.6579 6.36241 21.62 5.47823 21.0049 4.09429C20.3898 5.55511 19.275 6.36241 18.237 6.82372C19.3519 7.28503 20.3898 8.16921 21.0049 9.55315Z" fill="#3CA200"></path> </g> <g class="star3" clip-path="url(#clip0_2179_16151)"> <path d="M20.2745 23.6619C20.7358 23.6619 24.8876 23.5081 24.8876 18.6643C24.8876 18.3952 25.1183 18.1646 25.3874 18.1646C25.6565 18.1646 25.8871 18.3952 25.8871 18.6643C25.8871 23.5081 30.0389 23.6619 30.5002 23.6619C30.5387 23.6619 30.5387 23.6619 30.5387 23.6619C30.8078 23.7003 31 23.8925 31 24.1616C31 24.4307 30.7693 24.6614 30.5002 24.6614C30.0005 24.6614 25.8871 24.8151 25.8871 29.6589C25.8871 29.928 25.6565 30.1587 25.3874 30.1587C25.1567 30.2356 24.9261 30.0049 24.9261 29.6974C24.9261 24.8536 20.7742 24.6998 20.3129 24.6998H20.2745C20.0054 24.6998 19.7747 24.4692 19.7747 24.1616C19.7747 23.8925 20.0054 23.6619 20.2745 23.6619ZM25.4258 26.9295C26.0793 25.4687 27.1557 24.6614 28.1937 24.2001C27.0788 23.7387 26.0409 22.8546 25.4258 21.4706C24.8107 22.9314 23.6959 23.7387 22.6579 24.2001C23.7728 24.6614 24.8107 25.5455 25.4258 26.9295Z" fill="#3CA200"></path> </g> <defs> <clipPath id="clip0_2179_16151"> <rect width="31" height="31" fill="white" transform="matrix(-1 0 0 1 31 0)"></rect> </clipPath> </defs> </svg>